<svg width="316" height="316" viewBox="0 0 316 316" fill="none" xmlns="http://www.w3.org/2000/svg">
<path d="M316 158C316 138.149 299.714 121.863 279.863 121.863H245.265L269.734 97.3928C283.752 83.3754 283.752 60.3641 269.734 46.2656C255.717 32.2482 232.706 32.2482 218.607 46.2656L194.137 70.7354V36.1374C194.137 16.2862 177.851 0 158 0C138.149 0 121.863 16.2862 121.863 36.1374V70.7354L97.3928 46.2656C83.3754 32.2482 60.3641 32.2482 46.2656 46.2656C32.2482 60.2831 32.2482 83.2944 46.2656 97.3928L70.7354 121.863H36.1374C16.2862 121.863 0 138.149 0 158C0 177.851 16.2862 194.137 36.1374 194.137H70.7354L46.2656 218.607C32.2482 232.625 32.2482 255.636 46.2656 269.734C60.2831 283.752 83.2944 283.752 97.3928 269.734L121.863 245.265V279.863C121.863 299.714 138.149 316 158 316C177.851 316 194.137 299.714 194.137 279.863V245.265L218.607 269.734C232.625 283.752 255.636 283.752 269.734 269.734C283.752 255.717 283.752 232.706 269.734 218.607L245.265 194.137H279.863C299.714 194.137 316 177.851 316 158Z" fill="#197CFF"/>
</svg>
