<svg width="48" height="48" viewBox="0 0 48 48" fill="none" xmlns="http://www.w3.org/2000/svg">
<g clip-path="url(#clip0_2459_1845)">
<path d="M48 18.4577V29.5537H44.2963V36.9002H40.604V40.5925H36.9002V44.2963H29.5537V48H18.4577V44.2963H11.1112V40.5925H7.40748V36.9002H3.70374V29.5537H0V18.4577H3.70374V11.1112H7.40748V7.40748H11.1112V3.70374H18.4577V0H29.5537V3.70374H36.9002V7.40748H40.604V11.1112H44.2963V18.4577H48Z" fill="#75F979"/>
<path d="M14.7502 29.5575H11.1151V33.2612H14.7502V29.5575Z" fill="black"/>
<path d="M33.2612 33.2612H14.7463V36.8964H33.2612V33.2612Z" fill="black"/>
<path d="M36.8964 29.5575H33.2612V33.2612H36.8964V29.5575Z" fill="black"/>
</g>
<defs>
<clipPath id="clip0_2459_1845">
<rect width="48" height="48" fill="white"/>
</clipPath>
</defs>
</svg>
